<?xml version="1.0" encoding="UTF-8" standalone="no"?>
<!-- Created with Inkscape (http://www.inkscape.org/) -->

<svg
   sodipodi:docname="Anglo-American_card_suits.svg"
   inkscape:version="1.1.2 (0a00cf5339, 2022-02-04)"
   sodipodi:version="0.32"
   id="svg1326"
   height="792.00000pt"
   width="612.00000pt"
   version="1.1"
   xmlns:inkscape="http://www.inkscape.org/namespaces/inkscape"
   xmlns:sodipodi="http://sodipodi.sourceforge.net/DTD/sodipodi-0.dtd"
   xmlns="http://www.w3.org/2000/svg"
   xmlns:svg="http://www.w3.org/2000/svg"
   xmlns:rdf="http://www.w3.org/1999/02/22-rdf-syntax-ns#"
   xmlns:cc="http://creativecommons.org/ns#"
   xmlns:dc="http://purl.org/dc/elements/1.1/">
  <defs
     id="defs3" />
  <sodipodi:namedview
     inkscape:grid-bbox="false"
     gridtolerance="2.0000000px"
     inkscape:grid-points="false"
     showgrid="false"
     inkscape:window-y="0"
     inkscape:window-x="0"
     inkscape:window-height="688"
     inkscape:window-width="1058"
     inkscape:current-layer="layer5"
     inkscape:document-units="in"
     inkscape:cy="168.65155"
     inkscape:cx="-379.06445"
     inkscape:zoom="0.31129271"
     inkscape:pageshadow="2"
     inkscape:pageopacity="0.0"
     borderopacity="1.0"
     bordercolor="#666666"
     pagecolor="#ffffff"
     id="base"
     showguides="true"
     inkscape:guide-bbox="true"
     inkscape:pagecheckerboard="0"
     inkscape:snap-object-midpoints="true"
     inkscape:snap-page="true"
     inkscape:window-maximized="1">
    <inkscape:grid
       id="GridFromPre046Settings"
       type="xygrid"
       originx="0.0000000in"
       originy="0.0000000in"
       spacingx="0.50000000in"
       spacingy="0.50000000in"
       color="#3f3fff"
       empcolor="#3f3fff"
       opacity="0.15"
       empopacity="0.38"
       empspacing="5" />
  </sodipodi:namedview>
  <metadata
     id="metadata4">
    <rdf:RDF>
      <cc:Work
         rdf:about="">
        <dc:format>image/svg+xml</dc:format>
        <dc:type
           rdf:resource="http://purl.org/dc/dcmitype/StillImage" />
        <dc:title>Anglo-American card suits</dc:title>
        <dc:creator>
          <cc:Agent>
            <dc:title>Jeff Bonham</dc:title>
          </cc:Agent>
        </dc:creator>
        <cc:license
           rdf:resource="http://creativecommons.org/licenses/by-sa/2.0/" />
        <dc:description>Anglo-American card suits: clubs, diamonds, hearts and spades.  Created in Inkscape.</dc:description>
        <dc:subject>
          <rdf:Bag>
            <rdf:li>anglo-american</rdf:li>
            <rdf:li>cards</rdf:li>
            <rdf:li>club</rdf:li>
            <rdf:li>clubs</rdf:li>
            <rdf:li>diamond</rdf:li>
            <rdf:li>diamonds</rdf:li>
            <rdf:li>heart</rdf:li>
            <rdf:li>hearts</rdf:li>
            <rdf:li>spade</rdf:li>
            <rdf:li>spades</rdf:li>
          </rdf:Bag>
        </dc:subject>
        <dc:source>http://commons.wikimedia.org/wiki/Image:Anglo-American_card_suits.svg</dc:source>
      </cc:Work>
      <cc:License
         rdf:about="http://creativecommons.org/licenses/by-sa/2.0/">
        <cc:permits
           rdf:resource="http://web.resource.org/cc/Reproduction" />
        <cc:permits
           rdf:resource="http://web.resource.org/cc/Distribution" />
        <cc:requires
           rdf:resource="http://web.resource.org/cc/Notice" />
        <cc:requires
           rdf:resource="http://web.resource.org/cc/Attribution" />
        <cc:permits
           rdf:resource="http://web.resource.org/cc/DerivativeWorks" />
        <cc:requires
           rdf:resource="http://web.resource.org/cc/ShareAlike" />
      </cc:License>
    </rdf:RDF>
  </metadata>
  <g
     inkscape:groupmode="layer"
     id="layer5"
     inkscape:label="club"
     style="display:inline">
    <path
       sodipodi:nodetypes="czcccczczc"
       id="rect3667"
       d="m -31.34914,-25.45147 c -58.81387,-28.09458 -145.32718,5.41679 -124.85824,81.01208 19.94711,73.66818 106.09049,57.5015 135.87882,12.65836 -12.42728,85.02529 -34.25235,98.26235 -47.33387,116.72006 h 138.884 C 57.1498,165.2 31.59786,153.24426 16.61318,67.05373 46.62955,111.82136 136.86617,127.34083 156.52506,54.73706 175.86374,-16.68393 88.6915,-57.3573 30.72406,-25.02551 86.30933,-62.35109 106.27133,-184.93903 0.99299,-184.93903 c -106.31757,0 -88.57883,124.98472 -32.34213,159.48756 z"
       style="color:#000000;display:block;overflow:visible;visibility:visible;fill:#000000;fill-opacity:1;fill-rule:nonzero;stroke:#000000;stroke-width:1.81094;stroke-linecap:butt;stroke-linejoin:miter;stroke-miterlimit:4;stroke-dashoffset:0;stroke-opacity:1;marker:none;marker-start:none;marker-mid:none;marker-end:none" />
  </g>
  <g
     inkscape:groupmode="layer"
     id="layer2"
     inkscape:label="diamond"
     style="display:inline">
    <path
       sodipodi:nodetypes="ccccc"
       id="path2139"
       d="M -1e-5,-185.83976 C -38.69811,-121.44254 -82.26247,-59.49595 -126.52198,0 -80.17693,59.49596 -35.9174,121.44253 -1e-5,185.83976 37.30776,120.21723 78.09139,57.65798 126.52198,0 79.48175,-59.49595 36.61259,-122.66786 -1e-5,-185.83976 Z"
       style="fill:#ff0000;fill-opacity:1;fill-rule:evenodd;stroke:none;stroke-width:1pt;stroke-linecap:butt;stroke-linejoin:miter;stroke-opacity:1" />
  </g>
  <g
     inkscape:groupmode="layer"
     id="layer3"
     inkscape:label="spade"
     style="display:inline">
    <path
       style="fill:#000000;fill-opacity:1;fill-rule:evenodd;stroke:#000000;stroke-width:0.855762pt;stroke-linecap:butt;stroke-linejoin:miter;stroke-opacity:1"
       d="m -102.70126,-57.35483 c -122.0804,124.72233 -2.40813,215.19165 94.11395,155.64651 -18.22494,64.96823 -28.24741,70.08028 -39.31195,87.18963 H 56.31535 C 42.93793,168.20422 28.88917,163.25991 14.65539,98.66148 113.20209,155.27105 217.06527,56.54796 107.71575,-57.35483 36.20106,-119.90942 8.43652,-177.0191 2.50726,-185.1285 c -5.68921,6.75662 -39.20801,66.37968 -105.20852,127.77367 z"
       id="path2076"
       sodipodi:nodetypes="cccccccc" />
  </g>
  <g
     inkscape:groupmode="layer"
     id="layer4"
     inkscape:label="heart"
     style="display:inline">
    <path
       sodipodi:nodetypes="ccccccccccccccccccccc"
       id="path30"
       d="m -2.35646,184.75347 c -0.3432,-0.61825 -1.81867,-5.08821 -3.27883,-9.93328 -9.25379,-30.70592 -26.43241,-61.79909 -55.20025,-99.91211 -10.80803,-14.31897 -20.98108,-26.99864 -48.4894,-60.43711 -31.85129,-38.71762 -40.97487,-51.12075 -50.18783,-68.22815 -5.44046,-10.10228 -11.07844,-25.47363 -12.93378,-35.26259 -1.85429,-9.78328 -1.88452,-25.76677 -0.0645,-34.08951 7.40327,-33.85415 37.47471,-59.39471 73.43295,-62.36878 41.19287,-3.40701 76.23264,17.40237 94.64341,56.20672 l 4.11116,8.66507 3.09417,-6.84536 c 4.59763,-10.17145 9.02537,-17.05079 16.49892,-25.63414 19.02798,-21.85364 41.67355,-32.55863 68.95442,-32.59608 12.21998,-0.0168 19.2223,0.99749 29.63542,4.29255 15.57394,4.92811 27.29757,12.6053 37.73867,24.71314 27.20989,31.55337 23.98818,74.53993 -9.53244,127.1876 -7.81932,12.2811 -21.92763,30.452 -41.32995,53.23123 -22.34309,26.23184 -33.26023,39.56342 -44.43732,54.26515 -26.79149,35.24004 -44.8099,67.26021 -54.72093,97.24342 -1.51191,4.57392 -3.09592,8.83598 -3.52003,9.47125 -0.98487,1.47524 -3.60189,1.49361 -4.41387,0.031 z"
       style="fill:#ff0000;fill-opacity:1" />
  </g>
</svg>
